HIERARCHY
ROOT hip
{
	OFFSET 0.000000 0.000000 0.000000
	CHANNELS 6 Xposition Yposition Zposition Xrotation Zrotation Yrotation 
	JOINT abdomen
	{
		OFFSET 0.000000 3.422050 0.000000
		CHANNELS 3 Xrotation Zrotation Yrotation 
		JOINT chest
		{
			OFFSET 0.000000 8.486693 -0.684411
			CHANNELS 3 Xrotation Zrotation Yrotation 
			JOINT neck
			{
				OFFSET 0.000000 10.266162 -0.273764
				CHANNELS 3 Xrotation Zrotation Yrotation 
				JOINT head
				{
					OFFSET 0.000000 3.148285 0.000000
					CHANNELS 3 Xrotation Zrotation Yrotation 
					End Site
					{
						OFFSET 0.000000 3.148289 0.000000
					}
				}
			}
			JOINT lCollar
			{
				OFFSET 3.422053 6.707223 -0.821293
				CHANNELS 3 Yrotation Zrotation Xrotation 
				JOINT lShldr
				{
					OFFSET 3.285171 0.000000 0.000000
					CHANNELS 3 Zrotation Yrotation Xrotation 
					JOINT lForeArm
					{
						OFFSET 10.129278 0.000000 0.000000
						CHANNELS 3 Yrotation Zrotation Xrotation 
						JOINT lHand
						{
							OFFSET 8.486692 0.000000 0.000000
							CHANNELS 3 Zrotation Yrotation Xrotation 
							End Site
							{
								OFFSET 4.106464 0.000000 0.000000
							}
						}
					}
				}
			}
			JOINT rCollar
			{
				OFFSET -3.558935 6.707223 -0.821293
				CHANNELS 3 Yrotation Zrotation Xrotation 
				JOINT rShldr
				{
					OFFSET -3.148289 0.000000 0.000000
					CHANNELS 3 Zrotation Yrotation Xrotation 
					JOINT rForeArm
					{
						OFFSET -10.266159 0.000000 0.000000
						CHANNELS 3 Yrotation Zrotation Xrotation 
						JOINT rHand
						{
							OFFSET -8.349810 0.000000 0.000000
							CHANNELS 3 Zrotation Yrotation Xrotation 
							End Site
							{
								OFFSET -4.106464 0.000000 0.000000
							}
						}
					}
				}
			}
		}
	}
	JOINT lThigh
	{
		OFFSET 5.338403 -1.642589 1.368821
		CHANNELS 3 Xrotation Zrotation Yrotation 
		JOINT lShin
		{
			OFFSET -2.053232 -20.121670 0.000000
			CHANNELS 3 Xrotation Zrotation Yrotation 
			JOINT lFoot
			{
				OFFSET 0.000000 -19.300380 -1.231939
				CHANNELS 3 Xrotation Yrotation Zrotation 
				End Site
				{
					OFFSET 0.000000 -2.463878 4.653993
				}
			}
		}
	}
	JOINT rThigh
	{
		OFFSET -5.338403 -1.642589 1.368821
		CHANNELS 3 Xrotation Zrotation Yrotation 
		JOINT rShin
		{
			OFFSET 2.053232 -20.121670 0.000000
			CHANNELS 3 Xrotation Zrotation Yrotation 
			JOINT rFoot
			{
				OFFSET 0.000000 -19.300380 -1.231939
				CHANNELS 3 Xrotation Yrotation Zrotation 
				End Site
				{
					OFFSET 0.000000 -2.463878 4.653993
				}
			}
		}
	}
}
MOTION
Frames: 13
Frame Time: 0.049897
-0.309380 39.914700 1.421967 -7.198942 0.000000 0.000000 -6.769362 -0.791626 -0.501452 11.599825 -0.683811 16.896801 -21.557398 19.997763 -40.003002 18.294744 0.000000 0.000000 -26.064709 47.755257 9.403649 -63.428326 -16.033493 1.262353 -126.686844 21.034912 -26.274466 -27.241442 -3.964413 -2.580432 14.494567 7.618473 -13.108090 62.597271 17.053850 0.582942 59.903881 -4.721714 4.311022 58.345520 -7.827815 -13.607770 -16.035236 11.482537 10.051687 48.982559 2.822749 -0.349993 -22.450405 6.359012 -16.647232 -13.148467 -21.998243 -7.532648 36.182995 -1.193643 0.628979 -10.170038 -4.021227 26.367216 
-0.309380 39.952099 1.401542 -6.798311 0.000000 0.000000 -6.769362 -0.791626 -0.501452 10.769297 -0.683823 16.896767 -21.261724 19.997766 -40.003006 18.388084 0.000000 0.000000 -26.411177 47.486824 9.858780 -63.612095 -16.023338 1.345421 -126.775063 20.928240 -26.243141 -27.399927 -3.747283 -2.431673 14.588125 8.041387 -12.596026 62.428913 17.020517 0.516055 59.903881 -4.721714 4.311022 58.271008 -7.751114 -13.386793 -16.408842 11.463074 10.029944 48.819183 2.793044 -0.356596 -22.318106 6.378907 -16.620260 -13.490957 -21.964750 -7.494564 35.970913 -1.153431 0.630513 -10.016108 -4.078427 26.333687 
-0.309380 39.989494 1.381117 -6.397707 0.000000 0.000000 -6.769362 -0.791626 -0.501451 9.939028 -0.683835 16.896727 -20.966063 19.997770 -40.003010 18.481409 0.000000 0.000000 -26.752689 47.216560 10.309155 -63.795803 -16.012924 1.428449 -126.863182 20.821533 -26.212027 -27.557806 -3.529753 -2.283557 14.677937 8.465023 -12.084219 62.260632 16.986996 0.449285 59.903881 -4.721714 4.311022 58.196812 -7.674132 -13.165962 -16.782393 11.443471 10.008331 48.655804 2.763321 -0.363114 -22.185812 6.398863 -16.593334 -13.833326 -21.931053 -7.456706 35.758835 -1.113214 0.631899 -9.862199 -4.135715 26.300303 
-0.309380 40.026890 1.360692 -5.997143 0.000000 0.000000 -6.769362 -0.791626 -0.501451 9.109108 -0.683848 16.896690 -20.670410 19.997770 -40.003002 18.574730 0.000000 0.000000 -27.089317 46.944534 10.754836 -63.979504 -16.002258 1.511434 -126.951157 20.714775 -26.181105 -27.715076 -3.311830 -2.136085 14.763993 8.889315 -11.572651 62.092419 16.953285 0.382631 59.903881 -4.721714 4.311022 58.122917 -7.596868 -12.945277 -17.155876 11.423733 9.986853 48.492439 2.733579 -0.369547 -22.053530 6.418883 -16.566458 -14.175569 -21.897150 -7.419081 35.546764 -1.072993 0.633135 -9.708318 -4.193091 26.267076 
-0.309380 40.064289 1.340266 -5.596628 0.000000 0.000000 -6.769363 -0.791626 -0.501452 8.279627 -0.683862 16.896656 -20.374781 19.997772 -40.003010 18.668034 0.000000 0.000000 -27.421101 46.670765 11.195866 -64.163177 -15.991336 1.594379 -127.039009 20.607979 -26.150381 -27.871735 -3.093519 -1.989254 14.846282 9.314200 -11.061303 61.924278 16.919394 0.316094 59.903881 -4.721714 4.311022 58.049355 -7.519327 -12.724746 -17.529289 11.403863 9.965510 48.329082 2.703820 -0.375894 -21.921247 6.438962 -16.539625 -14.517674 -21.863035 -7.381683 35.334709 -1.032770 0.634223 -9.554462 -4.250556 26.234003 
-0.309380 40.101685 1.319841 -5.196170 0.000000 0.000000 -6.769362 -0.791626 -0.501452 7.450664 -0.683876 16.896620 -20.079176 19.997782 -40.003014 18.761332 0.000000 0.000000 -27.748100 46.395317 11.632298 -64.346809 -15.980162 1.677278 -127.126717 20.501131 -26.119844 -28.027788 -2.874827 -1.843062 14.924788 9.739613 -10.550149 61.756222 16.885313 0.249676 59.903881 -4.721714 4.311022 57.976101 -7.441508 -12.504360 -17.902622 11.383855 9.944304 48.165745 2.674045 -0.382156 -21.788973 6.459104 -16.512840 -14.859638 -21.828722 -7.344519 35.122665 -0.992545 0.635162 -9.400632 -4.308106 26.201082 
-0.309380 40.139084 1.299416 -4.795782 0.000000 0.000000 -6.769362 -0.791626 -0.501452 6.622313 -0.683891 16.896582 -19.783594 19.997782 -40.003021 18.854620 0.000000 0.000000 -28.070366 46.118221 12.064191 -64.530396 -15.968724 1.760132 -127.214340 20.394253 -26.089516 -28.183243 -2.655760 -1.697508 14.999505 10.165491 -10.039176 61.588234 16.851046 0.183374 59.903881 -4.721714 4.311022 57.903168 -7.363420 -12.284133 -18.275866 11.363719 9.923236 48.002415 2.644252 -0.388333 -21.656706 6.479305 -16.486099 -15.201461 -21.794207 -7.307590 34.910633 -0.952318 0.635952 -9.246828 -4.365744 26.168312 
-0.309380 40.176479 1.278991 -4.395471 0.000000 0.000000 -6.769362 -0.791626 -0.501452 5.794653 -0.683906 16.896549 -19.488035 19.997784 -40.003014 18.947889 0.000000 0.000000 -28.387941 45.839512 12.491588 -64.713966 -15.957040 1.842941 -127.301819 20.287325 -26.059378 -28.338093 -2.436325 -1.552590 15.070416 10.591767 -9.528358 61.420315 16.816593 0.117192 59.903881 -4.721714 4.311022 57.830551 -7.285053 -12.064054 -18.649008 11.343448 9.902305 47.839081 2.614442 -0.394425 -21.524441 6.499566 -16.459400 -15.543125 -21.759489 -7.270897 34.698627 -0.912091 0.636593 -9.093051 -4.423467 26.135704 
-0.309380 40.213875 1.258566 -3.995249 0.000000 0.000000 -6.769362 -0.791626 -0.501451 4.967774 -0.683922 16.896513 -19.192520 19.997791 -40.003025 19.041149 0.000000 0.000000 -28.700891 45.559254 12.914548 -64.897491 -15.945101 1.925702 -127.389191 20.180367 -26.029442 -28.492346 -2.216528 -1.408308 15.137511 11.018376 -9.017675 61.252495 16.781958 0.051132 59.903881 -4.721714 4.311022 57.758259 -7.206420 -11.844132 -19.022051 11.323050 9.881516 47.675781 2.584617 -0.400431 -21.392191 6.519890 -16.432756 -15.884637 -21.724581 -7.234443 34.486622 -0.871864 0.637085 -8.939298 -4.481273 26.103237 
-0.309380 40.251274 1.238141 -3.595126 0.000000 0.000000 -6.769362 -0.791626 -0.501451 4.141759 -0.683938 16.896475 -18.897039 19.997793 -40.003033 19.134396 0.000000 0.000000 -29.009254 45.277443 13.333116 -65.080971 -15.932900 2.008413 -127.476425 20.073360 -25.999695 -28.646006 -1.996375 -1.264658 15.200785 11.445260 -8.507108 61.084747 16.747137 -0.014807 59.903881 -4.721714 4.311022 57.686295 -7.127519 -11.624369 -19.394983 11.302526 9.860870 47.512501 2.554776 -0.406351 -21.259947 6.540275 -16.406155 -16.225977 -21.689468 -7.198225 34.274643 -0.831639 0.637428 -8.785576 -4.539165 26.070934 
-0.309380 40.288670 1.217716 -3.195107 0.000000 0.000000 -6.769363 -0.791626 -0.501452 3.316691 -0.683955 16.896444 -18.601593 19.997795 -40.003036 19.227640 0.000000 0.000000 -29.313089 44.994156 13.747351 -65.264427 -15.920454 2.091073 -127.563553 19.966320 -25.970144 -28.799067 -1.775871 -1.121639 15.260216 11.872346 -7.996626 60.917072 16.712135 -0.080626 59.903881 -4.721714 4.311022 57.614655 -7.048352 -11.404762 -19.767794 11.281871 9.840365 47.349220 2.524919 -0.412186 -21.127708 6.560718 -16.379602 -16.567156 -21.654175 -7.162251 34.062687 -0.791416 0.637622 -8.631882 -4.597140 26.038788 
-0.309380 40.326065 1.197291 -2.795208 0.000000 0.000000 -6.769362 -0.791626 -0.501452 2.492657 -0.683972 16.896406 -18.306194 19.997797 -40.003033 19.320868 0.000000 0.000000 -29.612450 44.709423 14.157305 -65.447838 -15.907751 2.173681 -127.650543 19.859238 -25.940786 -28.951527 -1.555025 -0.979250 15.315803 12.299574 -7.486216 60.749477 16.676952 -0.146323 59.903881 -4.721714 4.311022 57.543346 -6.968923 -11.185319 -20.140474 11.261093 9.820006 47.185955 2.495048 -0.417936 -20.995487 6.581224 -16.353098 -16.908152 -21.618677 -7.126519 33.850746 -0.751196 0.637667 -8.478215 -4.655199 26.006796 
-0.309380 40.363464 1.176866 -2.395434 0.000000 0.000000 -6.769362 -0.791626 -0.501452 1.669738 -0.683989 16.896374 -18.010853 19.997805 -40.003040 19.414076 0.000000 0.000000 -29.907394 44.423283 14.563030 -65.631210 -15.894792 2.256238 -127.737419 19.752119 -25.911625 -29.103403 -1.333840 -0.837488 15.367535 12.726884 -6.975850 60.581974 16.641584 -0.211893 59.903881 -4.721714 4.311022 57.472355 -6.889229 -10.966033 -20.513023 11.240191 9.799790 47.022717 2.465162 -0.423599 -20.863266 6.601787 -16.326639 -17.248972 -21.583002 -7.091032 33.638817 -0.710980 0.637564 -8.324574 -4.713336 25.974949 
